<svg width="107" height="27" viewBox="0 0 107 27" fill="none" xmlns="http://www.w3.org/2000/svg">
<rect width="107" height="27" fill="#FEE040"/>
<path d="M22.384 8.328H24.672V19H11.056V8.328H13.328V17H16.72V8.328H19.008V17H22.384V8.328ZM39.7424 19H37.1504L36.4944 17.192H31.9184L31.2464 19H28.6544L32.7824 8.328H35.6304L39.7424 19ZM35.8704 15.192L34.2064 10.6L32.5424 15.192H35.8704ZM45.9999 19H43.7279V8.328H51.2799V10.328H45.9999V19ZM76.8023 13.4C75.9809 13.4 75.3143 13.144 74.8023 12.632C74.3009 12.12 74.0503 11.496 74.0503 10.76C74.0503 10.024 74.3009 9.4 74.8023 8.888C75.3143 8.376 75.9809 8.12 76.8023 8.12C77.6343 8.12 78.3009 8.376 78.8022 8.888C79.3143 9.4 79.5703 10.024 79.5703 10.76C79.5703 11.496 79.3143 12.12 78.8022 12.632C78.3009 13.144 77.6343 13.4 76.8023 13.4ZM75.8903 11.832C76.1143 12.088 76.4183 12.216 76.8023 12.216C77.1863 12.216 77.4903 12.088 77.7143 11.832C77.9383 11.5653 78.0503 11.208 78.0503 10.76C78.0503 10.3227 77.9383 9.976 77.7143 9.72C77.5009 9.464 77.1969 9.336 76.8023 9.336C76.4183 9.336 76.1143 9.464 75.8903 9.72C75.6769 9.96533 75.5703 10.312 75.5703 10.76C75.5703 11.208 75.6769 11.5653 75.8903 11.832ZM72.5143 19H70.3223L65.2343 12.04V19H62.9622V8.328H65.2983L70.2423 15.032V8.328H72.5143V19ZM88.5669 19H86.2949V11.256L84.5189 13.064L83.2229 11.704L86.5829 8.328H88.5669V19ZM95.585 18.792C95.329 19.048 95.025 19.176 94.673 19.176C94.321 19.176 94.017 19.048 93.761 18.792C93.505 18.536 93.377 18.232 93.377 17.88C93.377 17.528 93.505 17.224 93.761 16.968C94.017 16.712 94.321 16.584 94.673 16.584C95.025 16.584 95.329 16.712 95.585 16.968C95.841 17.224 95.969 17.528 95.969 17.88C95.969 18.232 95.841 18.536 95.585 18.792Z" fill="#151515"/>
</svg>
