<svg width="107" height="27" viewBox="0 0 107 27" fill="none" xmlns="http://www.w3.org/2000/svg">
<rect width="107" height="27" fill="#FEE040"/>
<path d="M22.384 8.328V17H19.008V8.328H16.72V17H13.328V8.328H11.056V19H24.672V8.328H22.384ZM39.7424 19L35.6304 8.328H32.7824L28.6544 19H31.2464L31.9184 17.192H36.4944L37.1504 19H39.7424ZM35.8704 15.192H32.5424L34.2064 10.6L35.8704 15.192ZM45.9999 19V10.328H51.2799V8.328H43.7279V19H45.9999ZM76.8023 13.4C78.5303 13.4 79.5703 12.184 79.5703 10.76C79.5703 9.336 78.5303 8.12 76.8023 8.12C75.1063 8.12 74.0503 9.336 74.0503 10.76C74.0503 12.184 75.1063 13.4 76.8023 13.4ZM76.8023 12.216C76.0183 12.216 75.5703 11.64 75.5703 10.76C75.5703 9.88 76.0183 9.336 76.8023 9.336C77.5863 9.336 78.0503 9.88 78.0503 10.76C78.0503 11.64 77.5863 12.216 76.8023 12.216ZM72.5143 19V8.328H70.2423V15.032L65.2983 8.328H62.9622V19H65.2343V12.04L70.3223 19H72.5143ZM91.8309 19V17H87.4789C90.2469 14.984 91.7509 13.4 91.7509 11.576C91.7509 9.448 89.9429 8.168 87.6709 8.168C86.1829 8.168 84.5989 8.712 83.5589 9.912L84.8549 11.416C85.5749 10.664 86.5029 10.184 87.7189 10.184C88.5989 10.184 89.4469 10.648 89.4469 11.576C89.4469 12.888 88.1669 13.992 83.7989 17.224V19H91.8309ZM97.6886 19.176C98.3926 19.176 98.9846 18.584 98.9846 17.88C98.9846 17.176 98.3926 16.584 97.6886 16.584C96.9846 16.584 96.3926 17.176 96.3926 17.88C96.3926 18.584 96.9846 19.176 97.6886 19.176Z" fill="#151515"/>
</svg>
